  <svg fill="#FCEFEF" xmlns="http://www.w3.org/2000/svg" width="30.604" height="18" viewBox="0 0 30.604 18">
        <path d="M28.626 15.79H4.19C1.88 15.79 0 13.907 0 11.597V6.062c0-2.31 1.88-4.188 4.19-4.188h7.025c.033-.01.09-.016.15-.016h17.26c1.09 0 1.98.887 1.98 1.978v9.974c0 1.09-.89 1.98-1.98 1.98zM4.19 2.872C2.43 2.873 1 4.303 1 6.063v5.535c0 1.76 1.43 3.19 3.19 3.19h24.436c.54 0 .978-.438.978-.978V3.835c0-.54-.438-.978-.978-.978L4.19 2.873zM11.877 2.532h-1c0-.473 0-1.147-.07-1.464-.216.19-.592.74-.592 1.464h-1c0-1.278.842-2.532 1.7-2.532.962 0 .962 1.173.962 2.532zM10.915 18c-.858 0-1.7-1.254-1.7-2.53h1c0 .713.365 1.257.595 1.454.067-.32.067-.986.067-1.455h1c0 1.357 0 2.53-.962 2.53z"></path>
        <path d="M25.96 13.52h-7.37c-.968 0-1.755-.79-1.755-1.756V5.882c0-.968.787-1.755 1.754-1.755h7.37c.97 0 1.756.788 1.756 1.755v5.882c0 .966-.787 1.755-1.755 1.755zm-7.37-8.394c-.417 0-.755.34-.755.755v5.883c0 .416.338.755.754.755h7.37c.417 0 .756-.34.756-.755v-5.88c0-.418-.34-.756-.755-.756h-7.37zM7.962 13.89H7.9c-.713 0-1.622-1.556-1.622-2.294V6.05c0-.74.91-2.292 1.622-2.292l.123.015 2.365.598c.555.06.936.732.936 1.68v5.546c0 .947-.38 1.62-.936 1.68l-2.426.613zm.003-9.1c-.245.232-.687.916-.687 1.26v5.546c0 .344.442 1.027.687 1.26l2.22-.56c.05-.09.14-.332.14-.7V6.05c0-.368-.088-.61-.14-.7l-2.22-.56z"></path>
    </svg>