 <svg fill="#FCEFEF" xmlns="http://www.w3.org/2000/svg" width="22" height="20.535" viewBox="0 0 22 20.535">
        <path d="M11.078 13.788c-3.8 0-6.893-3.092-6.893-6.894S7.277 0 11.078 0c3.803 0 6.896 3.093 6.896 6.894s-3.093 6.894-6.896 6.894zm0-12.788c-3.25 0-5.892 2.644-5.892 5.894s2.644 5.894 5.893 5.894c3.25 0 5.895-2.644 5.895-5.894S14.33 1 11.078 1z"></path>
        <path d="M15.106 20.535c-3.802 0-6.896-3.092-6.896-6.892 0-3.803 3.093-6.896 6.896-6.896C18.908 6.747 22 9.84 22 13.643c0 3.8-3.092 6.892-6.894 6.892zm0-12.788c-3.25 0-5.896 2.645-5.896 5.896 0 3.248 2.645 5.892 5.896 5.892 3.25 0 5.894-2.644 5.894-5.892 0-3.25-2.645-5.896-5.894-5.896z"></path>
        <path d="M6.894 20.535C3.092 20.535 0 17.442 0 13.64c0-3.8 3.092-6.893 6.894-6.893S13.79 9.84 13.79 13.64s-3.094 6.895-6.896 6.895zm0-12.788C3.644 7.747 1 10.39 1 13.64s2.644 5.895 5.894 5.895 5.896-2.644 5.896-5.894-2.645-5.893-5.896-5.893z"></path>
    </svg>