 <svg fill="#FCEFEF" xmlns="http://www.w3.org/2000/svg" width="26.999" height="17.486" viewBox="0 0 26.999 17.486">
        <path d="M25.542 6.133c-.09-.092-.216-.105-.345-.105h-2.163c-.266 0-.524.137-.524.406V8.22h-1.47l-2.667-4c-.08-.45-.478-.875-.952-.875H12.93V.975h3.663c.266 0 .483-.222.483-.487 0-.268-.218-.488-.482-.488H8.265c-.268 0-.484.22-.484.488 0 .266.216.486.483.486h3.688v2.372h-4.6c-.534 0-1.002.472-1.002 1.004v.118L5.268 5.54H4.147c-.268 0-.48.178-.48.447v3.208H.977V5.45c0-.268-.22-.484-.49-.484-.265 0-.486.217-.486.484v8.324c0 .268.22.484.486.484.27 0 .488-.217.488-.484v-3.602h2.69V12.7c0 .266.213.64.48.64H5.27l1.226 1.286 2.418 2.77c.092.108.227.09.37.09H20.32c.534 0 .967-.323.967-.858l-.004-1.336h1.226v1.796c0 .267.258.397.523.397h1.97c.128 0 .25-.008.34-.096 1.157-1.14 1.612-3.624 1.652-5.608.053-2.582-.49-4.667-1.453-5.65zm.488 5.625c-.043 2.13-.525 3.777-1.237 4.752h-1.31v-1.84c0-.267-.182-.355-.45-.355h-2.232c-.128 0-.25-.013-.342.078s-.142.134-.142.263l.005 1.854H9.51l-2.284-2.646-1.378-1.436c-.092-.104-.223-.062-.36-.062h-.847v-5.85h.82c.12 0 .238-.07.33-.152l1.39-1.32c.1-.09.142-.23.142-.366v-.356h10.1s.028.206.084.283l2.88 4.307c.09.132.24.283.398.283h2.25c.27 0 .45-.347.45-.614V7h1.496c.683.735 1.092 2.63 1.05 4.758z"></path>
    </svg>