<svg fill="#FCEFEF" xmlns="http://www.w3.org/2000/svg" width="34.591" height="16.375" viewBox="0 0 34.591 16.375">
        <path d="M33.106 12.888H30.93v-.075l-.607-.07.117-.995 1.192.14h1.474c.38 0 .484-.103.484-.48V6.942l-13.45-.035-.088-4.983c-.012-.25-.1-.458-.278-.637-.195-.197-.408-.288-.67-.288l-5.61.008c-.51 0-2.583.433-2.89.728-.14.166-2.53 2.822-3.85 3.944-.52.44-1.703.894-3.45 1.534-.83.305-1.936.71-2.3.93l.018 3.248c0 .366.1.467.47.467h1.98v1h-1.98c-.92 0-1.47-.55-1.47-1.468L0 7.962c0-.575.663-.843 2.96-1.687 1.214-.445 2.725-1 3.146-1.357C7.31 3.896 9.55 1.422 9.8 1.146 10.39.342 13.298.008 13.494.008L19.104 0c.53 0 .995.196 1.38.583.353.355.544.796.567 1.31l.072 4.018 13.468.036v5.46c0 .928-.554 1.482-1.484 1.482zm-8.743-.03H10.506v-1h13.857v1z"></path>
        <path d="M7.023 16.375c-2.025 0-3.672-1.647-3.672-3.672C3.35 10.678 5 9.03 7.024 9.03c2.024 0 3.67 1.647 3.67 3.673.002 2.024-1.645 3.672-3.67 3.672zm0-6.344c-1.473 0-2.672 1.2-2.672 2.673s1.2 2.672 2.673 2.672 2.67-1.2 2.67-2.672c.002-1.474-1.196-2.672-2.67-2.672zM27.048 16.375c-2.025 0-3.672-1.647-3.672-3.672 0-2.025 1.646-3.672 3.672-3.672 2.023 0 3.67 1.647 3.67 3.673 0 2.024-1.647 3.672-3.67 3.672zm0-6.344c-1.474 0-2.672 1.2-2.672 2.673s1.198 2.672 2.672 2.672c1.473 0 2.67-1.2 2.67-2.672 0-1.474-1.197-2.672-2.67-2.672z"></path>
    </svg>