<svg xmlns="http://www.w3.org/2000/svg" xmlns:xlink="http://www.w3.org/1999/xlink" version="1.1" x="0px" y="0px" viewBox="0 0 100 125" enable-background="new 0 0 100 100" xml:space="preserve"><path d="M94.439,38.434C94.066,38.055,93.557,38,93.024,38h-8.869C83.061,38,82,38.569,82,39.665V47h-2.723L68.336,30.591  C68.004,28.737,66.379,27,64.431,27H46v-6h15.019c1.095,0,1.983-0.905,1.983-2s-0.889-2-1.983-2H26.864  c-1.096,0-1.983,0.905-1.983,2s0.888,2,1.983,2H42v6H23.11C20.923,27,19,28.928,19,31.115v0.486L14.577,36H9.972  C8.877,36,8,36.734,8,37.83V51H4V35.626c0-1.095-0.905-1.983-2-1.983s-2,0.888-2,1.983v34.151c0,1.096,0.905,1.983,2,1.983  s2-0.888,2-1.983V55h4v10.368C8,66.464,8.877,68,9.972,68h4.62l5.022,5.268l9.921,11.367C29.912,85.08,30.465,85,31.048,85h45.284  c2.188,0,3.967-1.322,3.967-3.514L80.283,76H82v7.367C82,84.463,83.062,85,84.156,85h8.077c0.52,0,1.019-0.029,1.39-0.393  c4.753-4.668,6.62-14.865,6.783-23.008C100.619,51.011,98.389,42.456,94.439,38.434z M96.441,61.513  C96.266,70.25,94.295,77,91.367,81H86v-7.548C86,72.356,85.252,72,84.156,72h-5.862c-0.527,0-1.032-0.055-1.404,0.318  c-0.372,0.371-0.58,0.551-0.579,1.078L76.332,81H31.967l-9.363-10.857l-5.651-5.889C16.576,63.834,16.04,64,15.477,64H12V40h3.356  c0.501,0,0.983-0.283,1.351-0.625l5.715-5.411C22.826,33.59,23,33.017,23,32.466V31h41.431c0,0,0.12,0.844,0.344,1.173  l11.814,17.662C76.957,50.378,77.571,51,78.228,51h5.928C85.251,51,86,49.575,86,48.479V42h6.134  C94.941,45,96.615,52.783,96.441,61.513z"/><text x="0" y="115" fill="#000000" font-size="5px" font-weight="bold" font-family="'Helvetica Neue', Helvetica, Arial-Unicode, Arial, Sans-serif">Created by j.ledkov</text><text x="0" y="120" fill="#000000" font-size="5px" font-weight="bold" font-family="'Helvetica Neue', Helvetica, Arial-Unicode, Arial, Sans-serif">from the Noun Project</text></svg>